<svg width="25" height="25" viewBox="0 0 25 25" fill="none" xmlns="http://www.w3.org/2000/svg">
<path d="M10.0833 10.4167H2.08333C1.92862 10.4167 1.78025 10.3552 1.67085 10.2458C1.56146 10.1364 1.5 9.98804 1.5 9.83333V1.83333C1.5 1.67862 1.56146 1.53025 1.67085 1.42085C1.78025 1.31146 1.92862 1.25 2.08333 1.25H10.0833C10.238 1.25 10.3864 1.31146 10.4958 1.42085C10.6052 1.53025 10.6667 1.67862 10.6667 1.83333V9.83333C10.6667 9.98804 10.6052 10.1364 10.4958 10.2458C10.3864 10.3552 10.238 10.4167 10.0833 10.4167ZM23.4167 10.4167H15.4167C15.262 10.4167 15.1136 10.3552 15.0042 10.2458C14.8948 10.1364 14.8333 9.98804 14.8333 9.83333V1.83333C14.8333 1.67862 14.8948 1.53025 15.0042 1.42085C15.1136 1.31146 15.262 1.25 15.4167 1.25H23.4167C23.5714 1.25 23.7198 1.31146 23.8291 1.42085C23.9385 1.53025 24 1.67862 24 1.83333V9.83333C24 9.98804 23.9385 10.1364 23.8291 10.2458C23.7198 10.3552 23.5714 10.4167 23.4167 10.4167ZM10.0833 23.75H2.08333C1.92862 23.75 1.78025 23.6885 1.67086 23.5791C1.56146 23.4698 1.5 23.3214 1.5 23.1667V15.1667C1.5 15.012 1.56146 14.8636 1.67085 14.7542C1.78025 14.6448 1.92862 14.5833 2.08333 14.5833H10.0833C10.238 14.5833 10.3864 14.6448 10.4958 14.7542C10.6052 14.8636 10.6667 15.012 10.6667 15.1667V23.1667C10.6667 23.3214 10.6052 23.4698 10.4958 23.5791C10.3864 23.6885 10.238 23.75 10.0833 23.75ZM24 19.1667C24 21.6938 21.9438 23.75 19.4167 23.75C16.8895 23.75 14.8333 21.6938 14.8333 19.1667C14.8333 16.6395 16.8895 14.5833 19.4167 14.5833C21.9438 14.5833 24 16.6395 24 19.1667Z" stroke="white" stroke-width="1.5"/>
</svg>
