<svg width="20" height="20" viewBox="0 0 20 20" fill="none" xmlns="http://www.w3.org/2000/svg">
<path d="M18.6393 17.6323V10.6754C18.6393 10.1914 18.5406 9.71243 18.349 9.26793C18.1575 8.82343 17.8773 8.4227 17.5254 8.09031L10.9712 1.89613C10.6411 1.58405 10.2041 1.41016 9.74982 1.41016C9.29554 1.41016 8.8585 1.58405 8.5284 1.89613L1.9742 8.09031C1.62238 8.4227 1.34212 8.82343 1.15059 9.26793C0.959063 9.71243 0.8603 10.1914 0.860352 10.6754V17.6323C0.860352 18.1038 1.04766 18.556 1.38108 18.8894C1.7145 19.2228 2.16672 19.4102 2.63824 19.4102H16.8614C17.3329 19.4102 17.7851 19.2228 18.1185 18.8894C18.452 18.556 18.6393 18.1038 18.6393 17.6323Z" stroke="#8B8B8B" stroke-linecap="round" stroke-linejoin="round"/>
</svg>
