<svg width="23" height="23" viewBox="0 0 23 23" fill="none" xmlns="http://www.w3.org/2000/svg">
<path d="M7.23163 12.4704C6.64585 11.8846 6.64585 10.9349 7.23163 10.3491L10.6889 6.89179C11.2747 6.306 12.2245 6.306 12.8102 6.89179L16.2675 10.3491C16.8533 10.9349 16.8533 11.8846 16.2675 12.4704L12.8102 15.9277C12.2245 16.5135 11.2747 16.5135 10.6889 15.9277L7.23163 12.4704Z" stroke="#8B8B8B"/>
<path d="M11.75 1.98158C13.6148 1.98158 15.4377 2.53456 16.9882 3.57059C18.5388 4.60661 19.7472 6.07915 20.4609 7.802C21.1745 9.52484 21.3612 11.4206 20.9974 13.2496C20.6336 15.0785 19.7356 16.7586 18.417 18.0772C17.0984 19.3958 15.4184 20.2938 13.5894 20.6576C11.7605 21.0214 9.86469 20.8346 8.14185 20.121C6.419 19.4074 4.94646 18.1989 3.91043 16.6484C2.87441 15.0979 2.32143 13.2749 2.32143 11.4102C2.32434 8.91044 3.31864 6.51393 5.08621 4.74636C6.85378 2.97879 9.25029 1.9845 11.75 1.98158ZM11.75 0.410156C9.57441 0.410156 7.44767 1.05529 5.63873 2.26399C3.82979 3.47269 2.41989 5.19065 1.58733 7.20064C0.754766 9.21062 0.536929 11.4224 0.961367 13.5561C1.3858 15.6899 2.43345 17.65 3.97183 19.1883C5.51021 20.7267 7.47022 21.7744 9.60401 22.1988C11.7378 22.6232 13.9495 22.4054 15.9595 21.5728C17.9695 20.7403 19.6875 19.3304 20.8962 17.5214C22.1049 15.7125 22.75 13.5857 22.75 11.4102C22.75 8.49277 21.5911 5.69488 19.5282 3.63198C17.4653 1.56908 14.6674 0.410156 11.75 0.410156Z" fill="#8B8B8B" stroke="#333333" stroke-width="0.5"/>
</svg>
