<svg width="20" height="20" viewBox="0 0 20 20" fill="none" xmlns="http://www.w3.org/2000/svg">
<path d="M11.25 2.08724L10.8751 2.41811C10.882 2.42589 10.8891 2.43346 10.8964 2.4408L11.25 2.08724ZM18.0729 11.9102L17.742 11.5353C17.7343 11.5422 17.7267 11.5493 17.7194 11.5566L18.0729 11.9102ZM18.25 9.08724L18.6249 8.75638C18.618 8.7486 18.6109 8.74103 18.6036 8.73369L18.25 9.08724ZM8.42709 18.9102L8.07353 19.2637C8.08087 19.271 8.08844 19.2782 8.09622 19.285L8.42709 18.9102ZM11.0729 18.9102L11.4038 19.285C11.4116 19.2782 11.4191 19.271 11.4265 19.2637L11.0729 18.9102ZM1.42709 11.9102L1.78064 11.5566L1.76963 11.5456L1.75795 11.5353L1.42709 11.9102ZM4.75 4.91016C4.47386 4.91016 4.25 5.13401 4.25 5.41016C4.25 5.6863 4.47386 5.91016 4.75 5.91016V4.91016ZM4.76 5.91016C5.03614 5.91016 5.26 5.6863 5.26 5.41016C5.26 5.13401 5.03614 4.91016 4.76 4.91016V5.91016ZM1.25 5.41016C1.25 3.47716 2.817 1.91016 4.75 1.91016V0.910156C2.26472 0.910156 0.25 2.92487 0.25 5.41016H1.25ZM1.25 10.4102V5.41016H0.25V10.4102H1.25ZM4.75 1.91016H9.75V0.910156H4.75V1.91016ZM9.75 1.91016C10.1979 1.91016 10.5995 2.10587 10.8751 2.41811L11.6249 1.75638C11.1675 1.23819 10.4968 0.910156 9.75 0.910156V1.91016ZM18.25 10.4102C18.25 10.8581 18.0543 11.2597 17.742 11.5353L18.4038 12.285C18.922 11.8277 19.25 11.1569 19.25 10.4102H18.25ZM17.8751 9.41811C18.1088 9.68284 18.25 10.0294 18.25 10.4102H19.25C19.25 9.77647 19.0136 9.19678 18.6249 8.75638L17.8751 9.41811ZM9.75 18.9102C9.36924 18.9102 9.02268 18.7689 8.75795 18.5353L8.09622 19.285C8.53663 19.6737 9.11631 19.9102 9.75 19.9102V18.9102ZM10.742 18.5353C10.4773 18.7689 10.1308 18.9102 9.75 18.9102V19.9102C10.3837 19.9102 10.9634 19.6737 11.4038 19.285L10.742 18.5353ZM1.75795 11.5353C1.44572 11.2597 1.25 10.8581 1.25 10.4102H0.25C0.25 11.1569 0.578037 11.8277 1.09622 12.285L1.75795 11.5353ZM10.8964 2.4408L17.8964 9.4408L18.6036 8.73369L11.6036 1.73369L10.8964 2.4408ZM8.78064 18.5566L1.78064 11.5566L1.07353 12.2637L8.07353 19.2637L8.78064 18.5566ZM17.7194 11.5566L10.7194 18.5566L11.4265 19.2637L18.4265 12.2637L17.7194 11.5566ZM4.75 5.91016H4.76V4.91016H4.75V5.91016Z" fill="#8B8B8B"/>
</svg>
