<svg width="17" height="21" viewBox="0 0 17 21" fill="none" xmlns="http://www.w3.org/2000/svg">
<path d="M8.75 14.0841C10.9072 14.0841 12.8362 14.2613 14.2101 14.7479C14.8937 14.99 15.4048 15.2968 15.7415 15.6642C16.0678 16.0204 16.25 16.4539 16.25 17.0091C16.25 17.5636 16.0671 17.995 15.7397 18.3489C15.4017 18.7144 14.8886 19.0186 14.2031 19.258C12.8256 19.7391 10.896 19.9102 8.75 19.9102C6.59334 19.9102 4.6643 19.7329 3.2903 19.2463C2.60663 19.0042 2.09539 18.6974 1.75864 18.33C1.43221 17.9738 1.25 17.5403 1.25 16.9851C1.25 16.4306 1.43294 15.9992 1.7603 15.6453C2.09831 15.2799 2.61139 14.9757 3.29687 14.7363C4.67436 14.2552 6.60395 14.0841 8.75 14.0841ZM8.75 0.910156C11.4132 0.910156 13.544 3.04056 13.544 5.70121C13.544 8.36199 11.4131 10.4933 8.75 10.4933C6.08787 10.4933 3.95601 8.36192 3.95601 5.70121C3.95601 3.04062 6.08774 0.910156 8.75 0.910156Z" stroke="#8B8B8B"/>
</svg>
