<svg width="21" height="20" viewBox="0 0 21 20" fill="none" xmlns="http://www.w3.org/2000/svg">
<path d="M10.1498 19.5L6.94941 16.1124H2.9498C2.31329 16.1124 1.70284 15.8595 1.25275 15.4094C0.802661 14.9594 0.549805 14.3489 0.549805 13.7124V2.69999C0.549805 2.06347 0.802661 1.45302 1.25275 1.00293C1.70284 0.552844 2.31329 0.299988 2.9498 0.299988H17.3498C17.9863 0.299988 18.5968 0.552844 19.0469 1.00293C19.4969 1.45302 19.7498 2.06347 19.7498 2.69999V13.7124C19.7498 14.3489 19.4969 14.9594 19.0469 15.4094C18.5968 15.8595 17.9863 16.1124 17.3498 16.1124H13.3502L10.1498 19.5ZM12.3158 13.7124H17.3498V2.69999H2.9498V13.7124H7.9838L10.1498 16.0044L12.3158 13.7124Z" fill="white" stroke="#FFC931" stroke-width="0.6"/>
</svg>
