<svg width="28" height="16" viewBox="0 0 28 16" fill="none" xmlns="http://www.w3.org/2000/svg">
<path d="M9.17801 14.8571C9.17801 14.554 9.29842 14.2633 9.51275 14.049C9.72708 13.8347 10.0178 13.7143 10.3209 13.7143H17.178C17.4811 13.7143 17.7718 13.8347 17.9861 14.049C18.2005 14.2633 18.3209 14.554 18.3209 14.8571C18.3209 15.1602 18.2005 15.4509 17.9861 15.6653C17.7718 15.8796 17.4811 16 17.178 16H10.3209C10.0178 16 9.72708 15.8796 9.51275 15.6653C9.29842 15.4509 9.17801 15.1602 9.17801 14.8571ZM4.60659 8C4.60659 7.6969 4.72699 7.40621 4.94132 7.19188C5.15565 6.97755 5.44634 6.85714 5.74944 6.85714H21.7494C22.0525 6.85714 22.3432 6.97755 22.5576 7.19188C22.7719 7.40621 22.8923 7.6969 22.8923 8C22.8923 8.30311 22.7719 8.59379 22.5576 8.80812C22.3432 9.02245 22.0525 9.14286 21.7494 9.14286H5.74944C5.44634 9.14286 5.15565 9.02245 4.94132 8.80812C4.72699 8.59379 4.60659 8.30311 4.60659 8ZM0.0351562 1.14286C0.0351562 0.839753 0.155564 0.549063 0.369892 0.334735C0.584219 0.120408 0.874909 0 1.17801 0H26.3209C26.624 0 26.9147 0.120408 27.129 0.334735C27.3433 0.549063 27.4637 0.839753 27.4637 1.14286C27.4637 1.44596 27.3433 1.73665 27.129 1.95098C26.9147 2.16531 26.624 2.28571 26.3209 2.28571H1.17801C0.874909 2.28571 0.584219 2.16531 0.369892 1.95098C0.155564 1.73665 0.0351562 1.44596 0.0351562 1.14286Z" fill="#8B8B8B"/>
</svg>
